<?xml version="1.0" encoding="UTF-8"?>
<!DOCTYPE svg PUBLIC "-//W3C//DTD SVG 1.1//EN" "http://www.w3.org/Graphics/SVG/1.1/DTD/svg11.dtd">
<!-- Creator: CorelDRAW 2021 (64-Bit) -->
<svg xmlns="http://www.w3.org/2000/svg" xml:space="preserve" width="11.4961in" height="5.31496in" version="1.1" style="shape-rendering:geometricPrecision; text-rendering:geometricPrecision; image-rendering:optimizeQuality; fill-rule:evenodd; clip-rule:evenodd"
viewBox="0 0 11496.06 5314.96"
 xmlns:xlink="http://www.w3.org/1999/xlink"
 xmlns:xodm="http://www.corel.com/coreldraw/odm/2003">
 <g id="Layer_x0020_1">
  <metadata id="CorelCorpID_0Corel-Layer"/>
  <circle fill="#0f0" cx="5903.98" cy="2358.02" r="1999.88"/>
  <circle fill="#000" cx="5903.98" cy="2358.02" r="1664.77"/>
  <g id="_2491931146304">
   <path fill="#f00" d="M4974.09 1843.7c0,185.63 52.19,383.7 122.25,550.48 16.92,40.29 33.94,76.66 52.62,114.02 27.76,55.51 58.14,107.74 89.86,161.13 5.57,9.37 10.08,15.62 15.93,25.21 41.61,68.26 113.59,167.05 169.41,229.71 4.33,4.86 5.22,5.37 9.57,10.99 3.89,5.02 6.02,6.28 9.91,10.66l60.72 66.83c16.55,18.8 68.2,63.19 86.41,80.23l128.92 101.5c16.58,12.07 33.94,22.67 50.56,33.79 106.3,71.06 238.24,137.83 368.25,137.83 73.6,0 113.22,-3.3 181.82,-25.96 56.6,-18.7 109.52,-49.58 154.96,-87.79 29.49,-24.8 57.69,-55.74 74.68,-89.9 26.41,-53.07 22.84,-95.98 -4.1,-148.17 -10.31,-19.97 -25.82,-39.16 -40.68,-56.02 -21.45,-24.34 -47.65,-50.56 -72,-72 -60.43,-53.21 -124.83,-104 -194,-145.45 -52.08,-31.21 -107.15,-28.23 -159.5,2.8 -13.07,7.75 -21.45,13.59 -33.19,22.35 -6.2,4.63 -9.99,7.78 -16.18,12.62 -33.39,26.1 -67.75,67.14 -94.3,101.15 -23.52,30.12 -50.17,25.01 -74.75,0.35 -5.24,-5.26 -9.01,-9.3 -14.36,-14.44 -15.29,-14.71 -32.02,-28.11 -45.51,-45.01l-85.17 -93.81c-19.38,-20.84 -37.47,-44.19 -54.44,-66.94 -9,-12.05 -17.3,-21.67 -25.68,-33.98 -33.07,-48.6 -66.26,-92.27 -97.47,-143.23 -8.21,-13.41 -14.24,-23.61 -22.31,-37.35 -7.8,-13.27 -14.38,-24.81 -21.87,-37.79 -37.63,-65.27 -69.12,-133.35 -100,-202.42 -19.09,-42.69 -34.83,-85.28 -48.8,-130.21 -15.78,-50.74 52.88,-63.17 93.31,-81.04 64.31,-28.44 149.2,-50.63 181.82,-118.54 21.39,-44.51 10.27,-100.46 -0.73,-146.8 -20.81,-87.67 -42.96,-178.9 -80.26,-261.24 -18.73,-41.35 -36.74,-71.71 -74,-96.75 -19.57,-13.15 -43.04,-19.27 -67.45,-20.55l-20.38 0c-33.24,1.66 -66.71,10.99 -93.18,22.69 -37.26,16.46 -72.83,36.56 -105.58,61.06l-87.33 81.36c-36.1,38.77 -63.75,89.77 -83.4,138.78 -21.41,53.4 -34.38,116.03 -34.38,189.86z"/>
   <path fill="#f00" d="M5992.44 1469.27c0,31.48 4.24,52.41 29.28,75.65 16.94,15.72 35.38,20.15 62.43,26.03 25.09,5.46 46.02,12.48 68.5,19.96 59.34,19.77 97.1,38.99 151.11,71.08 24.69,14.67 56,38.16 77.81,55.92l47.54 42.98c23.75,23.75 41.19,42.98 62.09,69.57 7.44,9.46 12.39,16.45 19.37,25.89 27.12,36.67 46.31,71.33 66.83,112.15 18.96,37.7 37.43,86.86 48.28,130.7 22.28,90.02 23.04,116.66 23.04,207.38 0,35.24 -5.13,74.94 -11.16,108.17 -6.15,33.96 -11.24,66.85 18.81,98.13 26.96,28.06 47.91,28.23 80.8,28.23 21.11,0 43.15,-15.93 57.2,-31.27 33.07,-36.09 39.5,-173.85 39.5,-225.89 0,-153.09 -37.35,-298.76 -108.36,-430.65 -17.69,-32.85 -27.12,-49.27 -48.41,-81.2 -16.94,-25.42 -47.44,-66.34 -66.96,-87.33 -4.92,-5.29 -5.98,-8.08 -11.28,-13.41l-38.1 -40.08c-4.62,-4.62 -7.69,-7.73 -12.31,-12.37 -19.67,-19.77 -78.54,-67.07 -99.3,-81.74 -61.43,-43.43 -128.57,-80.3 -200.73,-107.86 -43.13,-16.47 -123.12,-44.38 -171.63,-44.38 -42.28,0 -84.35,41.89 -84.35,84.35z"/>
   <path fill="#f00" d="M5897.81 1753.18c0,39.57 12.89,66.32 46.86,86.86 13.07,7.91 29.47,9.71 45.76,13.91 16.24,4.18 31.42,9.46 47.04,14.68 6.6,2.2 14.36,5.11 20.78,8.02l41.83 19.88c113.13,63.28 192.86,162.41 229.04,287.33 16.94,58.47 22.24,129.31 13.43,190.98 -4.02,28.09 -6.55,25.14 -6.55,57.23 0,42.25 42.1,84.35 84.35,84.35 27.39,0 45.54,-2.84 67.31,-21.15 41.73,-35.07 43.78,-130.82 43.78,-188.69 0,-179.82 -78.04,-332.04 -163,-427.43 -22.65,-25.42 -46.57,-51.6 -73.56,-72.5 -78.35,-60.69 -143.31,-99.77 -243.2,-127.11 -48.11,-13.17 -90.93,-25.31 -129.85,17.43l-14.48 20.49c-4.77,9.28 -9.54,22.69 -9.54,35.72z"/>
   <path fill="#f00" d="M5803.17 2041.2c0,41.49 19.57,71.66 51.4,86.43 28.64,13.3 73.45,10.63 127.08,64.25 30.51,30.51 60.17,85 60.17,133.22l0 26.74c0,25.06 -17.17,57.8 9.1,97.87 39.63,60.45 127.16,51.73 156.87,-3.9 34.71,-64.98 17.37,-189.51 -10.49,-255.63 -24.02,-56.99 -41.53,-78.11 -77.91,-121.64l-23.47 -21.79c-39.04,-32.83 -74.44,-58.59 -125.31,-76.31 -24.8,-8.64 -50.46,-17.72 -78.97,-17.72 -48.13,0 -88.46,40.33 -88.46,88.46z"/>
  </g>
 </g>
</svg>
